<?xml version="1.0" encoding="UTF-8"?>
<svg id="Layer_2" data-name="Layer 2" xmlns="http://www.w3.org/2000/svg" xmlns:xlink="http://www.w3.org/1999/xlink" viewBox="0 0 4396.46 2144.92">
  <defs>
    <style>
      .cls-1 {
        fill: url(#Gaming);
      }

      .cls-2, .cls-3 {
        fill: none;
      }

      .cls-3 {
        stroke: #fff;
        stroke-miterlimit: 10;
        stroke-width: 4px;
      }
    </style>
    <pattern id="Gaming" x="0" y="0" width="863.1" height="720.61" patternTransform="translate(2415.95 126.76)" patternUnits="userSpaceOnUse" viewBox="0 0 863.1 720.61">
      <g>
        <rect class="cls-2" x="0" width="863.1" height="720.61"/>
        <g>
          <g>
            <line class="cls-3" x1="80.66" y1="593.79" x2="143.79" y2="656.24"/>
            <line class="cls-3" x1="143.45" y1="593.45" x2="81" y2="656.58"/>
          </g>
          <circle class="cls-3" cx="682.73" cy="360.3" r="15.97"/>
          <polygon class="cls-3" points="128.53 366.45 76.5 394.07 48.88 342.05 100.9 314.42 128.53 366.45"/>
          <polygon class="cls-3" points="555.74 167.77 531.21 167.77 543.47 146.53 555.74 125.28 568.01 146.53 580.27 167.77 555.74 167.77"/>
          <polygon class="cls-3" points="526.23 664.32 468.99 636.97 481.09 611.65 445.99 616.15 410.89 620.66 429.44 650.8 447.99 680.93 460.09 655.61 517.33 682.95 526.23 664.32"/>
          <path class="cls-3" d="m750.35,618.78l-22.5-40.32,46.17.68,24.35.36c.66-25.4-12.62-50.25-36.5-63.16-33.85-18.3-76.12-5.7-94.43,28.14-18.3,33.85-5.7,76.12,28.14,94.43,21.38,11.56,46.12,10.78,66.06.12l-11.29-20.24Z"/>
          <g>
            <path class="cls-3" d="m880.73,67.62h0c-17.61,0-32.24,12.77-35.14,29.56h-70.97c-2.89-16.79-17.52-29.56-35.14-29.56h0c-19.69,0-35.66,15.96-35.66,35.66v68.5c0,19.69,15.96,35.66,35.66,35.66h0c19.69,0,35.66-15.96,35.66-35.66v-8.45h69.93v8.45c0,19.69,15.96,35.66,35.66,35.66h0c19.69,0,35.66-15.96,35.66-35.66v-68.5c0-19.69-15.96-35.66-35.66-35.66Z"/>
            <path class="cls-3" d="m809.45,97.91c.17-6.25-.28-12.51-1.33-18.67-.51-2.96-1.15-5.95-.86-8.94.59-5.94,4.98-11.04,10.34-13.67,3.79-1.86,8.1-2.69,11.57-5.1,6.09-4.22,8.17-12.12,9.81-19.34"/>
            <polygon class="cls-3" points="762.61 122.97 745.8 122.97 745.8 106.16 732.9 106.16 732.9 122.97 716.09 122.97 716.09 135.87 732.9 135.87 732.9 152.68 745.8 152.68 745.8 135.87 762.61 135.87 762.61 122.97"/>
            <circle class="cls-3" cx="880.45" cy="115.04" r="7.45"/>
            <circle class="cls-3" cx="880.45" cy="145.4" r="7.45"/>
            <circle class="cls-3" cx="865.55" cy="129.94" r="7.45"/>
            <circle class="cls-3" cx="896.3" cy="129.94" r="7.45"/>
            <rect class="cls-3" x="781.57" y="110.3" width="21.58" height="4.8"/>
            <rect class="cls-3" x="817.39" y="110.3" width="21.58" height="4.8"/>
          </g>
          <polyline class="cls-3" points="264.07 383.36 230.34 448.5 283.53 448.5 219.97 530.91 241.67 469.1 190.72 469.1 264.07 383.36"/>
          <g>
            <polygon class="cls-3" points="535.39 510.33 383.96 488.15 414.75 277.82 566.19 299.99 535.39 510.33"/>
            <polygon class="cls-3" points="432.4 298.57 543.33 314.81 533.45 382.3 422.52 366.06 432.4 298.57"/>
            <polygon class="cls-3" points="452.24 430.03 436.94 427.79 439.18 412.49 430.64 411.24 428.4 426.54 413.1 424.3 411.85 432.84 427.15 435.08 424.91 450.38 433.45 451.63 435.69 436.34 450.99 438.57 452.24 430.03"/>
            <g>
              <circle class="cls-3" cx="512.65" cy="428.73" r="6.93"/>
              <circle class="cls-3" cx="496.86" cy="440.93" r="6.93"/>
              <circle class="cls-3" cx="524.28" cy="444.94" r="6.93"/>
              <circle class="cls-3" cx="508.49" cy="457.14" r="6.93"/>
            </g>
          </g>
          <g>
            <path class="cls-3" d="m233.56,123.29c-20.3,9.36-29.75,32.3-21.11,51.4,8.64,19.09,32.11,27.13,52.55,18.06l-31.44-69.46Z"/>
            <path class="cls-3" d="m335.7,77.06c-12.79-28.26-46.07-40.8-74.33-28.01-28.26,12.79-40.8,46.07-28.01,74.33"/>
            <path class="cls-3" d="m367.13,146.53c20.3-9.36,29.75-32.3,21.11-51.4s-32.11-27.13-52.55-18.06l31.44,69.46Z"/>
          </g>
        </g>
        <g>
          <path class="cls-3" d="m17.63,67.62h0C.02,67.62-14.61,80.39-17.51,97.18h-70.97c-2.89-16.79-17.52-29.56-35.14-29.56h0c-19.69,0-35.66,15.96-35.66,35.66v68.5c0,19.69,15.96,35.66,35.66,35.66h0c19.69,0,35.66-15.96,35.66-35.66v-8.45H-18.03v8.45c0,19.69,15.96,35.66,35.66,35.66h0c19.69,0,35.66-15.96,35.66-35.66v-68.5c0-19.69-15.96-35.66-35.66-35.66Z"/>
          <circle class="cls-3" cx="17.35" cy="115.04" r="7.45"/>
          <circle class="cls-3" cx="17.35" cy="145.4" r="7.45"/>
          <circle class="cls-3" cx="2.45" cy="129.94" r="7.45"/>
          <circle class="cls-3" cx="33.2" cy="129.94" r="7.45"/>
        </g>
      </g>
    </pattern>
  </defs>
  <g id="Pattern">
    <rect id="Pattern-2" data-name="Pattern" class="cls-1" width="4396.46" height="2144.92"/>
  </g>
</svg>