<svg id="SvgjsSvg1001" width="288" height="288" xmlns="http://www.w3.org/2000/svg" version="1.1" xmlns:xlink="http://www.w3.org/1999/xlink" xmlns:svgjs="http://svgjs.com/svgjs"><defs id="SvgjsDefs1002"></defs><g id="SvgjsG1008"><svg xmlns="http://www.w3.org/2000/svg" viewBox="0 0 32 32" width="288" height="288"><g data-name="Layer 2" fill="#e80f0f" class="color000 svgShape"><path d="M26.78,31.36H5.22A2.33,2.33,0,0,1,2.89,29V3.68A2.33,2.33,0,0,1,5.22,1.36H19.88A2.31,2.31,0,0,1,21.49,2L28.4,8.64a2.3,2.3,0,0,1,.71,1.67V29A2.33,2.33,0,0,1,26.78,31.36ZM5.22,3.36a.33.33,0,0,0-.33.33V29a.33.33,0,0,0,.33.33H26.78a.33.33,0,0,0,.33-.33V10.31a.31.31,0,0,0-.1-.23L20.11,3.44a.32.32,0,0,0-.22-.09Z" fill="#e80f0f" class="color000 svgShape"></path><path d="M27.71,9.36,20.8,2.72a1.32,1.32,0,0,0-.92-.37H5.22A1.33,1.33,0,0,0,3.89,3.68V29a1.33,1.33,0,0,0,1.33,1.33H11V24.69a1.16,1.16,0,0,1,1.16-1.16h7.68A1.16,1.16,0,0,1,21,24.69v5.66h5.78A1.33,1.33,0,0,0,28.11,29V10.31A1.31,1.31,0,0,0,27.71,9.36ZM16,19.36a5,5,0,1,1,5-5A5,5,0,0,1,16,19.36Z" fill="#e80f0f" class="color000 svgShape"></path><rect width="4" height="2" x="14" y="25.79" rx="1" ry="1" fill="#e80f0f" class="color000 svgShape"></rect></g></svg></g></svg>